<mxfile host="Electron" agent="Mozilla/5.0 (Windows NT 10.0; Win64; x64) AppleWebKit/537.36 (KHTML, like Gecko) draw.io/26.0.16 Chrome/132.0.6834.196 Electron/34.2.0 Safari/537.36" version="26.0.16">
  <diagram name="Page-1" id="uUjPEA9O0j6yC7UFUtHF">
    <mxGraphModel dx="942" dy="583" grid="1" gridSize="10" guides="1" tooltips="1" connect="1" arrows="1" fold="1" page="1" pageScale="1" pageWidth="850" pageHeight="1100" math="0" shadow="0">
      <root>
        <mxCell id="0" />
        <mxCell id="1" parent="0" />
        <mxCell id="3Q51bU5PeHuydqKOXLwc-45" value="" style="image;points=[];aspect=fixed;html=1;align=center;shadow=0;dashed=0;image=img/lib/allied_telesis/computer_and_terminals/Personal_Computer_with_Server.svg;" parent="1" vertex="1">
          <mxGeometry x="138.2" y="132" width="62.400000000000006" height="62.400000000000006" as="geometry" />
        </mxCell>
        <mxCell id="3Q51bU5PeHuydqKOXLwc-47" value="" style="image;points=[];aspect=fixed;html=1;align=center;shadow=0;dashed=0;image=img/lib/allied_telesis/storage/Datacenter_Server_Storage_Unit_Large.svg;" parent="1" vertex="1">
          <mxGeometry x="130" y="300" width="76.8" height="79.2" as="geometry" />
        </mxCell>
        <mxCell id="3Q51bU5PeHuydqKOXLwc-48" value="" style="image;html=1;image=img/lib/clip_art/computers/Database_128x128.png" parent="1" vertex="1">
          <mxGeometry x="128.4" y="490" width="80" height="80" as="geometry" />
        </mxCell>
        <mxCell id="FM_vbGsEeeZS9074XK-Q-26" value="" style="group" vertex="1" connectable="0" parent="1">
          <mxGeometry x="495" y="231" width="200" height="320" as="geometry" />
        </mxCell>
        <mxCell id="FM_vbGsEeeZS9074XK-Q-13" value="" style="rounded=1;whiteSpace=wrap;html=1;container=0;" vertex="1" parent="FM_vbGsEeeZS9074XK-Q-26">
          <mxGeometry width="200" height="320" as="geometry" />
        </mxCell>
        <mxCell id="3Q51bU5PeHuydqKOXLwc-34" value="" style="group" parent="FM_vbGsEeeZS9074XK-Q-26" vertex="1" connectable="0">
          <mxGeometry x="20" y="15" width="160" height="40" as="geometry" />
        </mxCell>
        <mxCell id="FM_vbGsEeeZS9074XK-Q-21" style="edgeStyle=orthogonalEdgeStyle;rounded=0;orthogonalLoop=1;jettySize=auto;html=1;exitX=0.5;exitY=1;exitDx=0;exitDy=0;" edge="1" parent="3Q51bU5PeHuydqKOXLwc-34" source="3Q51bU5PeHuydqKOXLwc-29">
          <mxGeometry relative="1" as="geometry">
            <mxPoint x="80" y="75" as="targetPoint" />
          </mxGeometry>
        </mxCell>
        <mxCell id="3Q51bU5PeHuydqKOXLwc-29" value="" style="rounded=1;whiteSpace=wrap;html=1;" parent="3Q51bU5PeHuydqKOXLwc-34" vertex="1">
          <mxGeometry width="160" height="40" as="geometry" />
        </mxCell>
        <mxCell id="3Q51bU5PeHuydqKOXLwc-30" value="Presentation(Controller)" style="text;html=1;align=center;verticalAlign=middle;whiteSpace=wrap;rounded=0;" parent="3Q51bU5PeHuydqKOXLwc-34" vertex="1">
          <mxGeometry x="50" y="5" width="60" height="30" as="geometry" />
        </mxCell>
        <mxCell id="3Q51bU5PeHuydqKOXLwc-35" value="" style="group" parent="FM_vbGsEeeZS9074XK-Q-26" vertex="1" connectable="0">
          <mxGeometry x="20" y="90" width="160" height="40" as="geometry" />
        </mxCell>
        <mxCell id="3Q51bU5PeHuydqKOXLwc-36" value="" style="rounded=1;whiteSpace=wrap;html=1;" parent="3Q51bU5PeHuydqKOXLwc-35" vertex="1">
          <mxGeometry width="160" height="40" as="geometry" />
        </mxCell>
        <mxCell id="3Q51bU5PeHuydqKOXLwc-37" value="Service" style="text;html=1;align=center;verticalAlign=middle;whiteSpace=wrap;rounded=0;" parent="3Q51bU5PeHuydqKOXLwc-35" vertex="1">
          <mxGeometry x="50" y="5" width="60" height="30" as="geometry" />
        </mxCell>
        <mxCell id="3Q51bU5PeHuydqKOXLwc-38" value="" style="group" parent="FM_vbGsEeeZS9074XK-Q-26" vertex="1" connectable="0">
          <mxGeometry x="20" y="165" width="160" height="40" as="geometry" />
        </mxCell>
        <mxCell id="FM_vbGsEeeZS9074XK-Q-23" style="edgeStyle=orthogonalEdgeStyle;rounded=0;orthogonalLoop=1;jettySize=auto;html=1;exitX=0.5;exitY=1;exitDx=0;exitDy=0;" edge="1" parent="3Q51bU5PeHuydqKOXLwc-38" source="3Q51bU5PeHuydqKOXLwc-39">
          <mxGeometry relative="1" as="geometry">
            <mxPoint x="80" y="75" as="targetPoint" />
          </mxGeometry>
        </mxCell>
        <mxCell id="3Q51bU5PeHuydqKOXLwc-39" value="" style="rounded=1;whiteSpace=wrap;html=1;" parent="3Q51bU5PeHuydqKOXLwc-38" vertex="1">
          <mxGeometry width="160" height="40" as="geometry" />
        </mxCell>
        <mxCell id="3Q51bU5PeHuydqKOXLwc-40" value="Bisness(Domain)" style="text;html=1;align=center;verticalAlign=middle;whiteSpace=wrap;rounded=0;" parent="3Q51bU5PeHuydqKOXLwc-38" vertex="1">
          <mxGeometry x="50" y="5" width="60" height="30" as="geometry" />
        </mxCell>
        <mxCell id="3Q51bU5PeHuydqKOXLwc-41" value="" style="group" parent="FM_vbGsEeeZS9074XK-Q-26" vertex="1" connectable="0">
          <mxGeometry x="20" y="240" width="170" height="40" as="geometry" />
        </mxCell>
        <mxCell id="3Q51bU5PeHuydqKOXLwc-42" value="" style="rounded=1;whiteSpace=wrap;html=1;" parent="3Q51bU5PeHuydqKOXLwc-41" vertex="1">
          <mxGeometry width="160" height="40" as="geometry" />
        </mxCell>
        <mxCell id="3Q51bU5PeHuydqKOXLwc-43" value="Data Access Objects" style="text;html=1;align=center;verticalAlign=middle;whiteSpace=wrap;rounded=0;" parent="3Q51bU5PeHuydqKOXLwc-41" vertex="1">
          <mxGeometry x="24" y="5" width="120" height="30" as="geometry" />
        </mxCell>
        <mxCell id="FM_vbGsEeeZS9074XK-Q-24" style="edgeStyle=orthogonalEdgeStyle;rounded=0;orthogonalLoop=1;jettySize=auto;html=1;exitX=0.5;exitY=1;exitDx=0;exitDy=0;entryX=0.5;entryY=0;entryDx=0;entryDy=0;" edge="1" parent="FM_vbGsEeeZS9074XK-Q-26" source="3Q51bU5PeHuydqKOXLwc-36" target="3Q51bU5PeHuydqKOXLwc-39">
          <mxGeometry relative="1" as="geometry" />
        </mxCell>
        <mxCell id="FM_vbGsEeeZS9074XK-Q-25" value="Application Backend" style="text;html=1;align=center;verticalAlign=middle;whiteSpace=wrap;rounded=0;" vertex="1" parent="FM_vbGsEeeZS9074XK-Q-26">
          <mxGeometry x="35" y="290" width="130" height="30" as="geometry" />
        </mxCell>
        <mxCell id="FM_vbGsEeeZS9074XK-Q-28" value="" style="group" vertex="1" connectable="0" parent="1">
          <mxGeometry x="470" y="100" width="250" height="80" as="geometry" />
        </mxCell>
        <mxCell id="3Q51bU5PeHuydqKOXLwc-57" value="" style="rounded=1;whiteSpace=wrap;html=1;container=0;" parent="FM_vbGsEeeZS9074XK-Q-28" vertex="1">
          <mxGeometry width="250" height="80" as="geometry" />
        </mxCell>
        <mxCell id="FM_vbGsEeeZS9074XK-Q-4" value="" style="rounded=1;whiteSpace=wrap;html=1;container=0;" vertex="1" parent="FM_vbGsEeeZS9074XK-Q-28">
          <mxGeometry x="22" y="10.599999999999994" width="60" height="40" as="geometry" />
        </mxCell>
        <mxCell id="FM_vbGsEeeZS9074XK-Q-5" value="React" style="text;html=1;align=center;verticalAlign=middle;whiteSpace=wrap;rounded=0;container=0;" vertex="1" parent="FM_vbGsEeeZS9074XK-Q-28">
          <mxGeometry x="40.75" y="15.599999999999994" width="22.5" height="30" as="geometry" />
        </mxCell>
        <mxCell id="FM_vbGsEeeZS9074XK-Q-8" value="" style="rounded=1;whiteSpace=wrap;html=1;container=0;" vertex="1" parent="FM_vbGsEeeZS9074XK-Q-28">
          <mxGeometry x="90" y="10" width="140" height="40" as="geometry" />
        </mxCell>
        <mxCell id="FM_vbGsEeeZS9074XK-Q-9" value="HTML, CSS" style="text;html=1;align=center;verticalAlign=middle;whiteSpace=wrap;rounded=0;container=0;" vertex="1" parent="FM_vbGsEeeZS9074XK-Q-28">
          <mxGeometry x="120" y="15" width="75" height="30" as="geometry" />
        </mxCell>
        <mxCell id="FM_vbGsEeeZS9074XK-Q-27" value="Application FrontEnd" style="text;html=1;align=center;verticalAlign=middle;whiteSpace=wrap;rounded=0;" vertex="1" parent="FM_vbGsEeeZS9074XK-Q-28">
          <mxGeometry x="60" y="54.400000000000006" width="130" height="20.6" as="geometry" />
        </mxCell>
        <mxCell id="FM_vbGsEeeZS9074XK-Q-30" value="" style="group" vertex="1" connectable="0" parent="1">
          <mxGeometry x="553" y="610" width="85" height="70" as="geometry" />
        </mxCell>
        <mxCell id="3Q51bU5PeHuydqKOXLwc-44" value="" style="strokeWidth=2;html=1;shape=mxgraph.flowchart.database;whiteSpace=wrap;" parent="FM_vbGsEeeZS9074XK-Q-30" vertex="1">
          <mxGeometry width="85" height="70" as="geometry" />
        </mxCell>
        <mxCell id="FM_vbGsEeeZS9074XK-Q-29" value="Database" style="text;html=1;align=center;verticalAlign=middle;whiteSpace=wrap;rounded=0;" vertex="1" parent="FM_vbGsEeeZS9074XK-Q-30">
          <mxGeometry x="12.5" y="30" width="60" height="30" as="geometry" />
        </mxCell>
        <mxCell id="FM_vbGsEeeZS9074XK-Q-31" value="" style="endArrow=classic;startArrow=classic;html=1;rounded=0;entryX=0.5;entryY=1;entryDx=0;entryDy=0;exitX=0.5;exitY=0;exitDx=0;exitDy=0;" edge="1" parent="1" source="FM_vbGsEeeZS9074XK-Q-13" target="3Q51bU5PeHuydqKOXLwc-57">
          <mxGeometry width="50" height="50" relative="1" as="geometry">
            <mxPoint x="590" y="240" as="sourcePoint" />
            <mxPoint x="640" y="190" as="targetPoint" />
          </mxGeometry>
        </mxCell>
        <mxCell id="FM_vbGsEeeZS9074XK-Q-32" value="" style="endArrow=classic;startArrow=classic;html=1;rounded=0;entryX=0.5;entryY=1;entryDx=0;entryDy=0;exitX=0.5;exitY=0;exitDx=0;exitDy=0;exitPerimeter=0;" edge="1" parent="1" source="3Q51bU5PeHuydqKOXLwc-44" target="FM_vbGsEeeZS9074XK-Q-25">
          <mxGeometry width="50" height="50" relative="1" as="geometry">
            <mxPoint x="530" y="600" as="sourcePoint" />
            <mxPoint x="580" y="550" as="targetPoint" />
          </mxGeometry>
        </mxCell>
        <mxCell id="FM_vbGsEeeZS9074XK-Q-33" value="API Communication" style="text;html=1;align=center;verticalAlign=middle;whiteSpace=wrap;rounded=0;" vertex="1" parent="1">
          <mxGeometry x="600" y="192.00000000000003" width="110" height="30" as="geometry" />
        </mxCell>
        <mxCell id="FM_vbGsEeeZS9074XK-Q-34" value="User Interface Tier" style="text;html=1;align=center;verticalAlign=middle;whiteSpace=wrap;rounded=0;" vertex="1" parent="1">
          <mxGeometry x="240" y="172.4" width="90" height="30" as="geometry" />
        </mxCell>
        <mxCell id="FM_vbGsEeeZS9074XK-Q-35" value="Applicaton Tier" style="text;html=1;align=center;verticalAlign=middle;whiteSpace=wrap;rounded=0;" vertex="1" parent="1">
          <mxGeometry x="240" y="330" width="90" height="30" as="geometry" />
        </mxCell>
        <mxCell id="FM_vbGsEeeZS9074XK-Q-36" value="Database Tier" style="text;html=1;align=center;verticalAlign=middle;whiteSpace=wrap;rounded=0;" vertex="1" parent="1">
          <mxGeometry x="240" y="515" width="90" height="30" as="geometry" />
        </mxCell>
        <mxCell id="FM_vbGsEeeZS9074XK-Q-37" value="" style="endArrow=classic;startArrow=classic;html=1;rounded=0;entryX=0.513;entryY=1.021;entryDx=0;entryDy=0;entryPerimeter=0;exitX=0.5;exitY=0;exitDx=0;exitDy=0;" edge="1" parent="1" source="3Q51bU5PeHuydqKOXLwc-48" target="3Q51bU5PeHuydqKOXLwc-47">
          <mxGeometry width="50" height="50" relative="1" as="geometry">
            <mxPoint x="410" y="380" as="sourcePoint" />
            <mxPoint x="460" y="330" as="targetPoint" />
          </mxGeometry>
        </mxCell>
        <mxCell id="FM_vbGsEeeZS9074XK-Q-38" value="" style="endArrow=classic;startArrow=classic;html=1;rounded=0;entryX=0.513;entryY=1.021;entryDx=0;entryDy=0;entryPerimeter=0;exitX=0.5;exitY=0;exitDx=0;exitDy=0;" edge="1" parent="1">
          <mxGeometry width="50" height="50" relative="1" as="geometry">
            <mxPoint x="167.9" y="301" as="sourcePoint" />
            <mxPoint x="168.9" y="192" as="targetPoint" />
          </mxGeometry>
        </mxCell>
      </root>
    </mxGraphModel>
  </diagram>
</mxfile>
